<?xml version="1.0" standalone="no"?>
<!DOCTYPE svg PUBLIC "-//W3C//DTD SVG 20010904//EN"
 "http://www.w3.org/TR/2001/REC-SVG-20010904/DTD/svg10.dtd">
<svg version="1.0" xmlns="http://www.w3.org/2000/svg"
 width="1030.000000pt" height="1155.000000pt" viewBox="0 0 1030.000000 1155.000000"
 preserveAspectRatio="xMidYMid meet">

<g transform="translate(0.000000,1155.000000) scale(0.100000,-0.100000)"
fill="#000000" stroke="none">
<path d="M3800 11318 c0 -2 -3 -257 -6 -568 -9 -1071 -44 -3704 -49 -3709 -3
-2 -5 25 -5 61 l0 65 -59 1 c-68 0 -81 5 -81 32 0 15 -6 17 -38 13 -48 -6
-122 13 -122 32 0 18 -5 18 -31 5 -18 -10 -19 -23 -19 -176 0 -152 -1 -165
-17 -162 -25 4 -32 98 -9 98 13 0 16 12 16 60 0 47 -3 60 -15 60 -12 0 -15 15
-15 72 0 83 -9 88 -11 6 -2 -85 -18 -95 -20 -13 -1 40 -4 60 -7 47 -8 -26 -28
-26 -25 1 2 9 -2 17 -7 17 -6 0 -10 -9 -10 -20 0 -30 -18 -24 -23 8 l-4 27 -2
-27 c0 -16 -5 -28 -10 -28 -5 0 -12 12 -14 28 l-4 27 -2 -27 c0 -19 -7 -28
-17 -28 -11 0 -15 6 -11 20 3 11 1 20 -4 20 -5 0 -9 -61 -9 -137 0 -75 -2
-134 -5 -131 -3 3 -7 64 -8 136 -3 131 -9 165 -21 117 -8 -33 -24 -32 -29 3
l-4 27 -2 -27 c-1 -34 -18 -37 -24 -5 l-4 22 -2 -23 c-1 -23 -26 -27 -26 -5 0
6 -3 15 -7 19 -5 4 -8 -2 -8 -14 0 -32 -18 -27 -23 6 l-4 27 -2 -27 c0 -16 -5
-28 -10 -28 -5 0 -12 12 -14 28 l-4 27 -2 -27 c-1 -34 -28 -38 -34 -5 l-4 22
-2 -22 c0 -13 -5 -23 -10 -23 -5 0 -12 10 -14 23 l-4 22 -2 -22 c-1 -31 -15
-29 -28 5 -9 22 -11 0 -12 -108 -1 -75 -5 -140 -11 -146 -10 -10 -11 -83 -4
-1659 l3 -960 151 -73 c83 -41 154 -72 157 -69 3 3 7 453 9 999 6 1412 12
1758 29 1758 12 0 15 -56 17 -322 3 -286 1 -330 -14 -380 -17 -53 -18 -131
-18 -1062 l0 -1004 47 -16 c69 -24 73 -22 73 29 l0 45 40 0 c39 0 40 1 40 35
0 34 -1 35 -40 35 l-40 0 0 44 0 44 45 4 45 3 0 -132 0 -133 -42 0 c-45 -1
-37 -15 12 -22 14 -1 27 -6 30 -9 11 -12 318 -89 357 -89 7 0 15 11 19 25 3
14 13 25 21 25 12 0 13 8 6 42 -9 48 -7 1199 7 3198 5 734 12 1917 16 2628 6
1253 7 1292 25 1292 18 0 19 -16 21 -382 l3 -383 5 365 c4 201 10 377 14 393
11 36 -7 57 -50 57 -19 0 -34 -1 -34 -2z m-464 -4360 c-3 -49 -16 -42 -16 8 1
32 4 44 9 34 5 -8 8 -27 7 -42z m235 -250 c1 -139 3 -288 5 -330 l3 -78 -30 0
c-17 0 -28 4 -24 10 3 5 6 148 5 316 -1 300 3 334 31 334 5 0 10 -114 10 -252z
m-203 -344 c21 -6 22 -10 22 -123 l0 -116 -45 3 -45 4 0 39 c0 39 0 39 40 39
l40 0 0 65 0 65 -40 0 c-38 0 -49 8 -33 23 8 9 31 9 61 1z m19 -286 c-3 -7 -5
-2 -5 12 0 14 2 19 5 13 2 -7 2 -19 0 -25z m3 -63 l0 -45 -43 0 c-24 0 -46 2
-48 5 -3 2 -3 20 -1 39 4 33 7 35 46 39 22 2 42 4 44 5 1 1 2 -18 2 -43z m-3
-97 c-3 -7 -5 -2 -5 12 0 14 2 19 5 13 2 -7 2 -19 0 -25z m3 -67 c0 -47 -1
-48 -27 -44 -68 10 -78 14 -62 24 7 5 10 9 4 9 -5 0 -10 14 -10 30 0 29 1 30
48 30 l47 0 0 -49z m0 -134 l0 -72 -46 3 c-34 3 -44 8 -40 18 3 8 1 14 -3 14
-5 0 -6 12 -2 28 6 22 14 28 44 30 32 3 37 7 37 28 0 13 2 24 5 24 3 0 5 -33
5 -73z m0 -160 l0 -72 -44 3 c-43 4 -44 5 -48 43 l-4 39 43 0 c41 0 43 1 43
30 0 17 2 30 5 30 3 0 5 -33 5 -73z m-3 -119 c-3 -7 -5 -2 -5 12 0 14 2 19 5
13 2 -7 2 -19 0 -25z m3 -66 l0 -47 -46 3 c-34 3 -44 8 -40 18 3 8 2 14 -2 14
-4 0 -7 14 -7 30 0 29 1 30 48 30 l47 0 0 -48z m0 -135 l0 -72 -44 3 c-43 4
-44 5 -48 43 l-4 39 43 0 c41 0 43 1 43 30 0 17 2 30 5 30 3 0 5 -33 5 -73z
m-3 -119 c-3 -7 -5 -2 -5 12 0 14 2 19 5 13 2 -7 2 -19 0 -25z m3 -68 l0 -50
-45 0 c-43 0 -45 1 -41 25 3 14 1 25 -4 25 -4 0 -6 9 -3 19 4 15 16 21 47 24
22 2 42 4 44 5 1 1 2 -20 2 -48z m0 -135 l0 -75 -44 0 c-25 0 -48 5 -51 10 -3
6 0 10 7 10 9 0 9 3 -2 10 -8 5 -10 10 -4 10 7 0 9 11 6 25 -4 23 -2 25 37 25
39 0 41 2 41 30 0 17 2 30 5 30 3 0 5 -34 5 -75z m-3 -117 c-3 -7 -5 -2 -5 12
0 14 2 19 5 13 2 -7 2 -19 0 -25z m3 -73 l0 -45 -46 0 c-37 0 -45 3 -40 15 3
8 2 15 -3 15 -4 0 -6 14 -3 30 4 28 7 30 48 30 l44 0 0 -45z m-3 -87 c-3 -7
-5 -2 -5 12 0 14 2 19 5 13 2 -7 2 -19 0 -25z m2 -100 c-1 -40 -4 -64 -6 -53
-7 26 -21 35 -55 35 -26 0 -28 3 -28 39 0 43 7 49 58 50 l32 1 -1 -72z"/>
<path d="M3908 11135 c-3 -3 5 -43 18 -90 45 -169 57 -322 50 -627 -5 -191
-11 -294 -21 -333 -8 -31 -15 -58 -15 -60 0 -3 55 -5 122 -5 147 0 163 -6 293
-114 69 -58 115 -86 195 -122 196 -86 360 -136 575 -174 250 -44 227 -35 298
-109 70 -73 127 -154 186 -262 l39 -72 6 59 c11 101 36 214 82 359 50 158 74
278 74 372 0 47 -4 65 -15 69 -8 4 -15 10 -15 15 0 23 -223 249 -245 249 -2 0
-16 11 -30 24 -29 27 -147 87 -218 111 -26 9 -107 27 -180 41 -138 27 -238 55
-372 106 -84 31 -190 81 -215 101 -8 7 -31 21 -50 32 -76 41 -291 186 -327
220 -11 11 -44 40 -73 65 -29 25 -76 69 -105 97 -28 29 -54 50 -57 48z m883
-669 c19 -1 43 -8 52 -16 55 -47 127 -121 127 -132 0 -6 -10 -3 -22 9 -41 36
-52 37 -26 2 30 -40 58 -93 58 -110 0 -6 -17 14 -37 45 -44 66 -60 73 -33 14
11 -24 19 -54 19 -68 0 -19 -5 -13 -20 25 -29 72 -39 77 -40 20 l-1 -50 -9 44
c-16 81 -26 66 -33 -48 -6 -80 -11 -108 -20 -105 -9 3 -10 26 -4 92 5 48 7
101 5 117 l-3 30 -17 -35 -18 -35 3 48 c2 26 0 47 -5 47 -4 0 -19 -11 -32 -25
-22 -21 -25 -22 -25 -6 0 10 9 30 21 45 l20 26 -21 0 c-12 0 -30 -5 -42 -11
-11 -6 -23 -8 -26 -4 -11 11 38 45 65 45 38 0 17 19 -30 27 -33 5 -37 8 -22
14 11 4 34 5 50 2 17 -3 46 -6 66 -7z m-104 -291 c22 -19 57 -56 78 -83 37
-49 37 -49 105 -54 40 -3 80 -13 99 -24 42 -25 39 -35 -6 -18 -21 7 -60 13
-86 14 l-49 0 21 -32 c11 -18 30 -36 43 -40 13 -3 18 -6 11 -7 -6 -1 -17 -3
-25 -6 -7 -3 -25 14 -43 40 -29 44 -31 45 -85 45 -30 0 -62 5 -70 11 -12 8 -8
10 15 8 57 -2 85 1 85 11 0 6 -35 46 -79 90 -79 81 -88 109 -14 45z m246 -314
c-5 -7 -53 41 -53 53 0 6 13 -3 28 -19 15 -17 27 -32 25 -34z"/>
<path d="M3872 10285 c-4 -18 -2 -1849 3 -2975 12 -2701 16 -3115 26 -3155 6
-22 13 -59 16 -81 4 -37 8 -43 35 -48 17 -3 57 -6 90 -6 56 0 58 1 48 20 -6
12 -7 20 -1 20 5 0 12 -6 14 -12 4 -10 6 -10 6 0 1 9 41 12 167 12 160 0 165
1 162 20 -3 19 -11 20 -175 22 -155 2 -172 4 -176 20 -3 10 -1 18 4 18 5 0 9
-3 9 -7 0 -5 75 -6 167 -3 163 5 166 5 169 28 l4 22 -165 0 c-140 0 -165 2
-165 15 0 13 25 15 165 15 109 0 165 -4 165 -11 0 -5 3 -8 8 -6 4 3 7 -28 7
-69 0 -42 -4 -74 -10 -74 -5 0 -4 -4 3 -9 8 -4 13 -12 13 -17 -2 -14 116 -16
221 -4 90 11 97 14 103 37 3 13 5 300 4 636 -3 1416 0 2554 6 2726 5 128 4
182 -3 180 -6 -2 -36 -38 -66 -79 l-56 -75 0 -88 c0 -64 -3 -88 -12 -85 -8 3
-11 24 -9 60 4 89 -14 86 -91 -17 l-45 -60 -17 -625 c-9 -344 -23 -848 -31
-1120 -8 -272 -15 -546 -16 -607 l-1 -113 -44 0 c-40 0 -44 2 -44 25 0 22 4
25 35 25 28 0 35 4 35 20 0 16 -7 20 -35 20 -31 0 -35 3 -35 25 0 21 5 25 30
25 20 0 30 5 30 15 0 10 -10 15 -30 15 -25 0 -30 4 -30 25 0 20 5 25 26 25 36
0 29 34 -9 38 -23 3 -28 8 -25 25 2 14 11 23 26 25 30 4 25 36 -6 40 -29 4
-31 42 -2 42 13 0 20 7 20 20 0 13 -7 20 -20 20 -15 0 -20 7 -20 25 0 18 5 25
20 25 12 0 20 7 20 16 0 9 -9 18 -20 21 -24 6 -28 53 -5 53 8 0 15 9 15 20 0
11 -7 20 -15 20 -8 0 -15 9 -15 19 0 10 7 21 15 25 8 3 15 12 15 21 0 8 -7 15
-15 15 -8 0 -15 7 -15 15 0 9 7 18 15 21 8 4 15 12 15 20 0 8 -7 14 -15 14 -9
0 -15 9 -15 25 0 14 7 28 15 31 8 4 15 12 15 20 0 8 -7 14 -15 14 -9 0 -15 9
-15 25 0 16 6 25 15 25 8 0 15 7 15 15 0 9 -7 18 -15 21 -8 4 -15 17 -15 30 0
15 6 24 15 24 8 0 15 7 15 15 0 8 -7 15 -15 15 -10 0 -15 10 -15 30 0 20 5 30
15 30 8 0 15 7 15 15 0 8 -7 15 -15 15 -9 0 -15 9 -15 25 0 16 6 25 15 25 22
0 18 27 -5 40 -21 11 -17 40 6 40 8 0 14 7 14 15 0 8 -7 15 -15 15 -10 0 -15
10 -15 30 0 21 5 30 16 30 10 0 14 7 12 18 -2 9 -10 16 -16 15 -7 -2 -12 8
-12 22 0 16 6 25 15 25 8 0 15 9 15 20 0 11 -7 20 -15 20 -9 0 -15 9 -15 25 0
16 6 25 15 25 8 0 15 9 15 20 0 11 -7 20 -15 20 -9 0 -15 9 -15 25 0 16 6 25
15 25 8 0 15 9 15 20 0 11 -7 20 -15 20 -22 0 -18 37 5 43 23 6 27 37 5 37 -8
0 -15 7 -15 15 0 8 7 15 15 15 8 0 15 9 15 20 0 11 -7 20 -15 20 -9 0 -15 9
-15 25 0 18 5 25 20 25 13 0 20 7 20 20 0 13 -7 20 -20 20 -13 0 -20 7 -20 20
0 13 7 20 20 20 26 0 27 36 1 43 -26 6 -17 47 10 47 12 0 19 7 19 20 0 13 -7
20 -20 20 -15 0 -20 7 -20 25 0 20 5 25 25 25 18 0 25 5 25 20 0 15 -7 20 -26
20 -21 0 -25 4 -22 23 2 16 11 23 31 25 35 4 37 32 2 32 -27 0 -36 29 -10 31
8 1 21 2 27 3 7 0 14 9 16 19 3 13 -3 17 -27 17 -26 0 -31 4 -31 25 0 14 6 25
13 26 6 1 23 2 37 2 15 1 26 9 28 20 3 14 -4 17 -32 17 -32 0 -36 3 -36 25 0
22 4 25 39 25 24 0 41 5 44 14 8 20 -2 26 -45 26 -34 0 -38 3 -38 24 0 23 4
25 53 28 38 2 52 7 52 18 0 11 -13 16 -48 18 l-48 3 3 152 c2 117 0 151 -9
149 -7 -1 -13 5 -13 13 0 8 4 15 8 15 4 0 14 50 21 110 l13 110 -89 84 c-152
144 -208 195 -214 196 -6 0 -66 -337 -84 -475 -8 -64 -13 -90 -15 -90 -1 0 -2
-30 -4 -67 -1 -62 0 -68 19 -68 15 0 17 2 6 9 -24 16 9 25 107 29 61 3 92 1
92 -6 0 -6 -19 -13 -42 -15 l-43 -4 43 -1 c23 -1 42 -6 42 -12 0 -5 19 -11 43
-11 33 -2 36 -3 12 -6 -50 -7 -53 -23 -5 -24 33 -2 37 -3 15 -6 -58 -8 -60
-17 -5 -23 l55 -7 -49 -1 c-42 -2 -47 -4 -36 -17 10 -12 8 -16 -15 -25 -14 -5
-40 -10 -56 -10 -33 0 -51 -26 -28 -41 8 -4 29 -6 48 -4 19 3 40 0 48 -6 7 -6
24 -9 37 -7 14 3 30 2 36 -2 6 -4 -2 -7 -19 -8 -16 0 -39 -5 -50 -11 -11 -6
-42 -11 -70 -11 -39 0 -51 -4 -51 -15 0 -8 0 -18 0 -22 0 -3 27 -5 59 -4 34 1
62 -2 66 -8 3 -6 21 -11 38 -12 28 -1 26 -2 -18 -15 -27 -8 -75 -13 -105 -12
-50 2 -55 0 -58 -20 -3 -21 0 -22 90 -22 64 0 88 -3 78 -10 -13 -8 -13 -10 2
-10 9 0 19 6 21 13 3 6 6 2 6 -9 1 -18 -6 -22 -45 -28 -26 -3 -73 -6 -105 -6
-52 0 -59 -2 -59 -20 0 -19 7 -20 103 -20 69 0 97 -3 87 -10 -8 -5 -56 -10
-106 -10 -83 0 -92 -2 -97 -20 -3 -11 -1 -22 4 -26 5 -3 47 -4 94 -2 54 2 88
-1 96 -9 24 -24 -3 -33 -107 -33 -97 0 -104 -1 -104 -20 0 -19 7 -20 109 -20
l108 0 -5 -25 c-4 -25 -5 -25 -113 -25 -102 0 -109 -1 -109 -20 0 -19 7 -20
110 -20 101 0 110 -2 110 -19 0 -27 -18 -31 -131 -31 -92 0 -99 -1 -99 -20 0
-19 7 -20 110 -20 103 0 110 -1 110 -20 0 -19 -7 -20 -115 -20 -108 0 -115 -1
-115 -20 0 -19 7 -20 110 -20 l110 0 0 -25 c0 -24 0 -24 -117 -27 -102 -3
-118 -5 -121 -20 -3 -15 9 -18 112 -20 153 -4 154 -22 1 -26 -107 -2 -115 -4
-115 -22 0 -19 7 -20 115 -20 108 0 115 -1 115 -20 0 -19 -7 -20 -120 -20
-113 0 -120 -1 -120 -20 0 -19 7 -20 120 -20 l120 0 0 -25 0 -24 -127 -3
c-106 -3 -128 -6 -128 -18 0 -12 23 -16 125 -20 121 -5 125 -6 126 -27 1 -23
0 -23 -127 -23 -79 0 -129 -4 -129 -10 0 -5 -1 -13 -2 -17 -2 -5 55 -10 126
-13 112 -4 129 -7 132 -22 3 -25 -48 -32 -167 -24 -95 7 -99 6 -99 -14 0 -19
6 -20 130 -20 l130 0 0 -24 c0 -35 -23 -39 -156 -31 -112 7 -114 7 -114 -14 0
-20 4 -21 135 -21 128 0 135 -1 135 -20 0 -19 -7 -20 -140 -20 -133 0 -140 -1
-140 -20 0 -18 8 -20 143 -22 134 -3 142 -4 142 -23 0 -19 -7 -20 -145 -21
-124 -1 -145 -4 -148 -17 -3 -14 15 -17 145 -19 l148 -3 0 -25 0 -25 -145 0
c-134 0 -159 -4 -160 -27 0 -4 69 -9 153 -10 149 -3 152 -3 155 -25 l3 -23
-155 0 c-149 0 -156 -1 -156 -20 0 -19 7 -20 155 -20 l155 0 0 -25 0 -25 -160
0 c-146 0 -160 -2 -160 -17 0 -16 14 -18 157 -18 l158 0 3 -27 3 -28 -166 0
c-148 0 -166 -2 -163 -16 3 -14 24 -17 163 -18 144 -1 160 -3 163 -18 3 -17
-10 -18 -162 -18 -159 0 -166 -1 -166 -20 0 -19 7 -20 170 -20 163 0 170 -1
170 -20 0 -19 -7 -20 -170 -20 -163 0 -170 -1 -170 -20 0 -19 7 -20 170 -20
l170 0 0 -25 0 -25 -175 0 c-168 0 -175 -1 -175 -20 0 -19 7 -20 180 -20 l180
0 0 -25 0 -25 -180 0 c-173 0 -180 -1 -180 -20 0 -19 7 -20 180 -20 173 0 180
-1 180 -20 0 -19 -7 -20 -179 -20 -162 0 -180 -2 -185 -17 -7 -25 0 1735 7
1772 3 17 13 107 22 200 9 94 20 206 25 249 6 44 10 180 10 303 l0 223 -50 31
-50 31 -1 456 c-2 551 -14 1911 -17 1897z m361 -2482 c-7 -2 -19 -2 -25 0 -7
3 -2 5 12 5 14 0 19 -2 13 -5z m75 0 c-10 -2 -26 -2 -35 0 -10 3 -2 5 17 5 19
0 27 -2 18 -5z m-25 -30 c-7 -2 -21 -2 -30 0 -10 3 -4 5 12 5 17 0 24 -2 18
-5z m70 0 c-7 -2 -19 -2 -25 0 -7 3 -2 5 12 5 14 0 19 -2 13 -5z m-145 -30
c-10 -2 -26 -2 -35 0 -10 3 -2 5 17 5 19 0 27 -2 18 -5z m129 0 c-20 -2 -52
-2 -70 0 -17 2 0 4 38 4 39 0 53 -2 32 -4z m-144 -30 c-7 -2 -19 -2 -25 0 -7
3 -2 5 12 5 14 0 19 -2 13 -5z m170 0 c-13 -2 -35 -2 -50 0 -16 2 -5 4 22 4
28 0 40 -2 28 -4z m-188 -33 c-27 -12 -43 -12 -25 0 8 5 22 9 30 9 10 0 8 -3
-5 -9z m193 3 c-10 -2 -26 -2 -35 0 -10 3 -2 5 17 5 19 0 27 -2 18 -5z m-158
-33 c-8 -5 -42 -9 -75 -8 l-60 1 45 7 c73 11 108 11 90 0z m0 -30 c0 -6 -29
-10 -67 -9 -50 1 -61 3 -43 9 36 12 110 12 110 0z m0 -30 c0 -6 -28 -10 -67
-9 -53 1 -61 3 -38 9 45 11 105 11 105 0z m10 -30 c0 -6 -33 -9 -82 -9 -67 2
-75 3 -43 9 62 11 125 11 125 0z m-155 -30 c3 -5 -1 -10 -10 -10 -9 0 -13 5
-10 10 3 6 8 10 10 10 2 0 7 -4 10 -10z m175 0 c0 -6 -34 -10 -82 -9 -56 0
-76 3 -63 9 28 12 145 12 145 0z m417 -557 c-4 -108 -7 -238 -7 -290 0 -51 -4
-93 -8 -93 -9 0 -6 546 3 560 3 4 -1 11 -7 13 -7 3 -5 6 6 6 18 1 19 -6 13
-196z m-20 -670 c-3 -10 -5 -2 -5 17 0 19 2 27 5 18 2 -10 2 -26 0 -35z m-339
-1230 l3 -23 -185 0 c-167 0 -185 -2 -189 -17 -3 -10 -5 1 -6 25 l-1 42 188
-2 c185 -3 187 -3 190 -25z m2 -87 l0 -24 -190 -2 -190 -1 0 26 0 25 190 0
190 0 0 -24z m0 -76 c5 -8 6 -18 4 -22 -3 -4 -90 -8 -195 -8 l-189 0 0 23 0
22 185 0 c152 0 187 -3 195 -15z m15 -80 c3 -5 2 -10 -4 -10 -6 0 -8 -7 -5
-15 5 -13 -20 -15 -190 -15 l-196 0 0 25 0 25 194 0 c119 0 197 -4 201 -10z
m-19 -99 c0 -29 -27 -32 -213 -30 -138 2 -163 4 -159 16 4 8 6 19 6 24 0 5 78
9 183 9 174 0 183 -1 183 -19z m144 -6 c0 -22 -4 -25 -40 -25 -36 0 -40 3 -40
25 0 23 4 25 40 25 36 0 40 -2 40 -25z m-166 -74 c15 -24 -27 -32 -172 -30
-133 1 -151 3 -165 20 -16 19 -13 19 158 19 95 0 176 -4 179 -9z m166 -11 c0
-17 -7 -20 -40 -20 -33 0 -40 3 -40 20 0 17 7 20 40 20 33 0 40 -3 40 -20z
m-195 -70 c11 -5 14 -9 8 -9 -7 -1 -12 -7 -10 -13 2 -15 -160 -24 -203 -12
l-25 7 25 7 c19 6 10 8 -32 9 -36 1 -58 -3 -61 -11 -3 -8 -6 -6 -6 4 -1 14 10
18 57 21 112 7 227 5 247 -3z m195 -15 c0 -22 -4 -25 -40 -25 -36 0 -40 3 -40
25 0 23 4 25 40 25 36 0 40 -2 40 -25z m-443 -11 c-3 -3 -12 -4 -19 -1 -8 3
-5 6 6 6 11 1 17 -2 13 -5z m218 -64 c4 -6 -11 -10 -37 -10 -31 0 -39 3 -28
10 20 13 57 13 65 0z m219 -22 c-7 -39 -8 -44 -6 -85 1 -20 7 -33 15 -33 10 0
14 -18 15 -65 1 -62 -13 -91 -20 -42 -3 22 -6 22 -164 25 l-162 2 -7 45 c-3
25 -9 45 -13 45 -4 0 -8 9 -9 20 -1 11 3 20 9 20 7 0 6 5 -1 14 -10 12 -8 17
8 25 11 6 30 11 43 12 23 1 23 1 -2 10 -25 8 -6 7 153 -7 46 -4 67 -3 68 5 1
6 3 16 4 21 1 6 3 12 4 15 0 3 17 5 36 5 34 0 35 -1 29 -32z m-337 -270 c-3
-8 -6 -5 -6 6 -1 11 2 17 5 13 3 -3 4 -12 1 -19z"/>
<path d="M2210 8715 c0 -203 4 -315 10 -315 6 0 10 112 10 315 0 203 -4 315
-10 315 -6 0 -10 -112 -10 -315z"/>
<path d="M6227 9013 c-4 -3 -7 -24 -7 -45 0 -36 -2 -38 -32 -38 -65 0 -61 20
-74 -432 -22 -738 -34 -1221 -35 -1333 0 -60 0 -141 -1 -180 0 -38 -1 -79 -2
-90 -1 -11 2 -26 7 -32 6 -8 6 -13 -1 -13 -9 0 -339 261 -352 279 -3 4 -17 16
-31 26 -14 11 -52 43 -85 72 l-59 52 5 101 c3 56 2 104 -2 107 -5 2 -8 9 -8
15 0 6 7 5 18 -3 16 -13 16 -13 2 6 -17 22 -21 27 -137 138 -44 42 -85 77 -91
77 -9 0 -43 -34 -194 -194 -69 -74 -97 -82 -99 -29 l-1 28 -9 -30 c-6 -18 -14
-483 -19 -1175 -5 -630 -14 -1392 -20 -1694 -6 -301 -9 -550 -6 -553 4 -5 169
35 261 63 73 22 256 95 283 112 l22 14 -2 1419 c-2 803 1 1419 6 1419 5 0 4 6
-1 13 -6 6 -13 20 -16 29 -7 20 92 -53 323 -237 181 -145 228 -187 210 -193
-8 -3 -8 -8 1 -18 6 -8 8 -14 3 -14 -8 0 -18 -234 -16 -370 1 -25 3 -412 5
-860 6 -985 4 -900 20 -900 12 0 152 92 167 109 3 3 34 31 69 61 104 89 118
102 191 172 39 36 71 71 71 77 1 6 3 16 4 21 1 6 3 96 4 200 1 169 3 190 17
190 14 0 16 8 10 46 l-6 47 61 -7 c74 -9 89 -14 89 -32 0 -22 23 -17 74 17
102 68 166 184 173 314 3 47 0 90 -6 105 -11 23 -11 22 -7 -12 3 -21 1 -38 -5
-38 -5 0 -9 17 -9 38 0 23 -3 32 -9 24 -4 -7 -6 -25 -3 -39 4 -22 2 -25 -14
-19 -10 4 -37 10 -60 13 l-41 5 -5 -68 c-6 -71 -36 -165 -64 -200 -15 -18 -15
-18 -10 0 19 59 45 170 51 218 l7 55 -32 7 c-18 3 -56 6 -85 6 l-52 0 -7 -52
c-3 -29 -6 -95 -6 -145 l0 -93 33 -1 c17 0 41 -4 52 -8 16 -6 10 -9 -25 -13
-25 -2 -47 -2 -50 2 -3 4 -22 6 -43 5 -21 -1 -40 2 -43 6 -3 5 4 9 15 9 11 0
22 3 24 8 3 4 7 70 8 147 l4 140 -90 -4 c-49 -2 -91 -4 -93 -6 -4 -3 15 -165
24 -201 4 -19 3 -26 -3 -19 -18 18 -43 136 -45 210 0 33 -6 54 -17 63 -12 9
-13 12 -2 10 10 -2 16 8 18 32 4 41 41 101 84 132 17 13 34 23 37 24 4 0 21 6
37 13 46 19 136 25 170 10 17 -7 33 -12 38 -11 4 1 7 -2 7 -8 0 -5 7 -10 15
-10 8 0 24 -9 34 -19 10 -10 29 -22 40 -26 12 -3 32 -23 46 -43 14 -20 25 -30
25 -21 0 25 -57 94 -112 136 -66 50 -119 70 -202 79 -50 5 -65 10 -69 25 -3
10 0 20 7 23 6 2 6 5 1 5 -15 1 -6 91 10 91 16 0 26 38 11 44 -23 9 82 10 115
0 23 -6 46 50 44 106 -3 75 -4 80 -20 80 -12 0 -15 -14 -15 -66 l0 -67 -37 7
c-21 3 -60 6 -88 6 l-50 0 3 61 c4 55 6 61 30 71 15 5 51 7 80 4 l52 -6 0 34
c0 24 -5 36 -17 40 -45 12 -102 16 -143 8 -41 -7 -45 -10 -48 -39 -2 -20 -12
-37 -28 -48 -24 -15 -25 -19 -18 -93 4 -42 12 -80 18 -84 8 -6 7 -11 -2 -17
-10 -6 -14 -37 -15 -106 -1 -55 -6 -100 -12 -102 -6 -2 -9 62 -7 182 2 117 -1
192 -8 205 -8 15 -8 18 2 15 11 -4 13 150 13 789 0 437 -3 793 -6 791 -3 -2
-5 17 -5 43 0 26 -5 68 -12 92 -22 85 -83 412 -78 417 3 3 45 -2 93 -10 48 -9
89 -14 92 -12 2 3 -3 5 -12 5 -10 0 -15 8 -14 20 2 26 8 25 103 -6 104 -33
270 -113 342 -163 63 -44 83 -49 102 -26 7 8 15 15 19 15 3 0 5 -107 4 -237
-2 -274 7 -267 33 23 l17 201 -29 48 c-40 65 -58 70 -52 16 2 -22 1 -41 -2
-41 -3 0 -28 15 -55 33 -89 59 -217 124 -350 177 -122 49 -158 70 -134 78 6 3
6 9 -2 18 -9 11 -8 14 7 14 20 0 16 3 -152 98 -86 49 -122 61 -137 45z m210
-2555 c-3 -8 -6 -5 -6 6 -1 11 2 17 5 13 3 -3 4 -12 1 -19z m-360 -170 c-2
-13 -4 -3 -4 22 0 25 2 35 4 23 2 -13 2 -33 0 -45z m363 -888 c0 -5 -2 -10 -4
-10 -3 0 -8 5 -11 10 -3 6 -1 10 4 10 6 0 11 -4 11 -10z"/>
<path d="M2115 8714 c-4 -162 -5 -298 -1 -301 3 -4 7 59 8 138 l2 144 6 -145
c5 -117 6 -89 8 152 1 163 -2 299 -7 302 -5 3 -12 -125 -16 -290z"/>
<path d="M5588 8672 c89 -28 142 -101 142 -194 0 -20 5 -17 40 24 49 57 89 72
173 64 59 -5 61 -5 32 9 -35 17 -142 20 -181 5 -25 -10 -32 -7 -73 34 -57 55
-99 76 -148 75 l-38 0 53 -17z"/>
<path d="M2516 8651 c5 -6 8 -59 6 -119 l-3 -110 -41 6 c-32 4 -40 2 -36 -9 3
-8 20 -17 39 -20 l34 -6 -37 -2 c-50 -1 -48 -17 2 -26 31 -5 40 -11 40 -27 0
-18 -5 -20 -40 -15 -29 4 -40 1 -40 -8 0 -7 18 -15 40 -19 28 -4 40 -11 40
-22 0 -14 -8 -16 -40 -11 -30 4 -40 2 -40 -9 0 -8 9 -14 21 -14 25 0 59 -17
59 -30 0 -6 -18 -10 -40 -10 -50 0 -52 -14 -3 -26 52 -13 55 -34 4 -34 -53 0
-53 -16 -1 -25 56 -10 60 -25 6 -25 -51 0 -62 -16 -18 -26 46 -10 52 -13 52
-28 0 -11 -10 -13 -41 -9 -33 5 -41 3 -37 -8 3 -8 20 -16 39 -19 23 -3 35 -11
37 -24 3 -16 -1 -17 -38 -11 -33 6 -41 4 -38 -6 3 -8 18 -16 34 -17 16 -2 35
-9 42 -15 20 -16 -6 -28 -47 -20 -26 4 -33 3 -29 -8 3 -8 20 -16 39 -19 23 -3
35 -11 37 -24 4 -17 0 -18 -37 -12 -33 5 -41 3 -41 -9 0 -9 9 -15 24 -15 36 0
56 -10 56 -27 0 -12 -8 -14 -40 -10 -30 4 -40 2 -40 -9 0 -8 10 -14 24 -14 36
0 56 -10 56 -27 0 -12 -8 -14 -40 -10 -29 4 -40 1 -40 -8 0 -7 18 -15 40 -19
28 -4 40 -11 40 -22 0 -14 -8 -16 -40 -11 -30 4 -40 2 -40 -9 0 -8 10 -14 23
-14 12 -1 33 -7 47 -15 24 -14 24 -14 -22 -15 -57 0 -63 -15 -11 -27 52 -12
55 -33 4 -33 -51 0 -53 -15 -4 -27 52 -12 55 -33 4 -33 -46 0 -55 -17 -13 -25
66 -14 75 -41 12 -36 -46 3 -55 -15 -12 -25 47 -10 52 -13 52 -29 0 -11 -11
-15 -40 -15 -22 0 -40 -4 -40 -9 0 -5 18 -12 40 -16 26 -4 40 -12 40 -22 0
-12 -9 -14 -40 -11 -51 5 -53 -15 -3 -28 52 -13 55 -34 4 -34 -44 0 -56 -16
-18 -23 19 -4 18 -4 -5 -6 l-28 -1 0 330 0 330 -26 0 c-25 0 -25 -1 -23 -62 1
-35 7 -66 13 -70 6 -5 -5 -5 -24 0 -58 12 -251 6 -317 -10 l-61 -15 -4 44 c-2
30 1 43 9 43 7 0 13 4 13 10 0 5 -6 8 -12 7 -7 -2 -3 1 10 7 19 9 22 17 22 68
0 58 0 58 29 58 28 0 30 -2 34 -47 2 -27 4 9 5 80 2 120 3 127 22 127 18 0 20
-7 20 -76 l0 -75 28 3 c26 3 27 0 33 -47 l6 -50 2 55 c1 30 3 93 4 140 2 68 5
85 17 85 12 0 16 -17 18 -83 3 -75 5 -83 20 -77 52 22 52 22 52 -49 0 -42 4
-65 10 -61 6 4 10 142 10 381 0 243 -4 374 -10 374 -6 0 -10 -40 -10 -100 l0
-100 -40 0 -40 0 0 -84 0 -84 -52 -7 c-52 -7 -144 -36 -181 -56 -17 -9 -18 -4
-16 88 2 96 1 99 -34 163 l-37 65 0 -350 c0 -260 -3 -354 -12 -363 -8 -8 -8
-12 -1 -12 6 0 10 -17 9 -40 -1 -47 -21 -48 -22 -2 -1 40 -5 44 -43 46 -42 2
-47 12 -17 31 31 21 35 45 6 38 -11 -3 -20 -1 -20 3 0 5 9 15 20 22 22 14 27
34 8 31 -35 -4 -39 2 -14 22 33 26 34 41 1 33 -14 -3 -25 -3 -25 1 0 4 11 16
25 27 30 23 33 42 5 33 -13 -4 -20 -2 -20 7 0 7 9 19 20 26 30 18 25 35 -7 28
l-28 -6 28 24 c15 14 27 28 27 31 0 3 -12 5 -27 5 l-28 1 28 24 c31 28 29 46
-6 38 -21 -4 -20 -3 6 21 32 30 36 50 7 41 -11 -4 -20 -2 -20 4 0 6 9 16 20
23 11 7 20 19 20 26 0 9 -7 11 -20 7 -28 -9 -26 19 3 40 19 13 20 17 7 25 -10
6 -11 10 -2 10 6 0 12 7 12 16 0 11 -6 14 -20 9 -16 -5 -20 -2 -20 14 0 25
-13 27 -30 6 -10 -12 -12 -94 -11 -359 2 -331 1 -343 -19 -368 -20 -26 -20
-35 -20 -1183 l0 -1156 32 -47 c55 -82 102 -132 109 -121 4 7 10 -3 14 -21 9
-40 191 -260 216 -260 25 0 95 349 135 670 9 74 18 137 20 139 2 2 4 -214 4
-481 l0 -485 56 -48 c114 -99 290 -224 406 -288 72 -41 91 -45 81 -20 -4 11
-3 14 5 9 9 -5 12 7 12 43 0 42 -3 51 -17 51 -13 0 -14 3 -6 8 7 5 10 19 7 36
-3 17 -1 25 6 21 6 -4 10 12 10 44 0 42 -3 51 -17 51 -11 0 -14 3 -8 8 6 4 10
19 10 34 -1 15 3 24 7 22 4 -3 8 18 8 45 0 42 -3 51 -17 51 -13 0 -15 2 -5 8
7 5 10 16 7 24 -4 9 -2 19 4 23 6 3 11 28 11 56 0 40 -3 49 -17 50 -10 0 -13
3 -7 5 5 2 9 18 8 34 -1 17 2 30 7 30 5 0 9 23 9 50 0 34 -4 50 -13 50 -9 0
-12 11 -9 36 3 25 7 32 13 23 5 -9 9 7 9 44 0 39 -4 57 -12 57 -8 0 -13 14
-13 35 0 21 5 35 13 35 8 0 12 16 12 45 0 30 -4 45 -13 45 -11 0 -13 12 -8 65
1 6 6 3 11 -5 7 -11 10 2 10 43 0 39 -4 57 -12 57 -8 0 -13 14 -13 35 0 35 9
46 18 23 3 -7 6 13 6 45 1 45 -2 57 -14 57 -12 0 -13 4 -6 18 6 11 6 24 0 35
-8 13 -6 17 6 17 11 0 15 11 15 45 0 31 -4 45 -13 45 -9 0 -12 10 -9 30 2 17
8 30 13 30 5 0 9 23 9 50 0 35 -4 50 -13 50 -9 0 -12 10 -9 30 2 17 8 30 13
30 14 0 10 52 -6 84 -19 37 -19 25 -17 398 2 311 2 316 22 311 19 -5 20 -1 19
133 -1 77 -4 128 -8 115 -10 -38 -31 -38 -32 1 l-2 33 -7 -35 c-6 -35 -13 -30
-23 15 -3 15 -5 13 -6 -7 -1 -32 -21 -39 -21 -8 0 11 -4 20 -9 20 -5 0 -8 -7
-7 -16 2 -26 -22 -28 -27 -2 l-4 23 -2 -22 c0 -13 -5 -23 -10 -23 -5 0 -12 10
-14 23 l-4 22 -2 -22 c-1 -29 -19 -29 -54 2 l-27 24 0 687 c1 556 -1 689 -12
695 -18 12 -64 11 -52 0z m-596 -955 c0 -2 -9 -6 -20 -9 -11 -3 -18 -1 -14 4
5 9 34 13 34 5z m467 -378 c-3 -8 -6 -5 -6 6 -1 11 2 17 5 13 3 -3 4 -12 1
-19z m-2 -86 c2 -29 0 -52 -4 -52 -4 0 -8 25 -9 56 -2 69 7 66 13 -4z m427
-84 c-8 -8 -9 -4 -5 13 4 13 8 18 11 10 2 -7 -1 -18 -6 -23z m-346 -196 c12
-8 12 -6 14 -344 1 -137 -1 -252 -5 -258 -3 -5 -1 -19 5 -30 10 -18 8 -20 -21
-20 l-32 0 6 98 c4 53 7 202 7 330 0 127 3 232 8 232 4 0 12 -4 18 -8z m-198
-54 c6 -8 10 -126 10 -325 l1 -313 -24 0 c-13 0 -27 5 -30 10 -3 6 -2 10 3 10
6 0 10 111 10 270 1 162 -3 270 -9 270 -10 0 -12 34 -3 68 7 24 26 29 42 10z
m-178 -75 c1 -47 -2 -524 -3 -563 -2 -33 -6 -45 -17 -45 -13 0 -15 41 -18 300
-1 165 0 305 3 312 7 19 35 16 35 -4z"/>
<path d="M5221 8621 c-8 -5 1 -10 24 -14 80 -13 145 -89 145 -170 0 -20 5 -39
10 -42 6 -3 10 -2 10 3 0 17 82 92 107 98 13 4 51 4 84 1 71 -6 69 7 -4 23
-43 10 -63 9 -109 -2 l-57 -15 -38 39 c-62 64 -139 99 -172 79z"/>
<path d="M7145 8283 c2 -98 3 -614 3 -1148 0 -533 1 -986 1 -1005 0 -19 1
-102 1 -185 l1 -150 21 25 c20 25 21 30 14 350 -11 561 -26 1540 -29 1917 -2
200 -6 365 -9 368 -3 3 -4 -74 -3 -172z"/>
<path d="M6979 8423 c-6 -16 -31 -118 -55 -228 -24 -110 -58 -252 -75 -315
-35 -129 -105 -318 -130 -351 l-17 -22 -31 43 c-42 59 -39 31 8 -67 25 -50 50
-88 70 -102 l31 -22 -5 47 c-3 26 -7 49 -9 51 -2 3 9 19 26 36 66 69 105 182
142 409 37 226 72 548 60 548 -2 0 -9 -12 -15 -27z"/>
<path d="M6461 8124 c0 -11 3 -14 6 -6 3 7 2 16 -1 19 -3 4 -6 -2 -5 -13z"/>
<path d="M4093 7483 c9 -2 25 -2 35 0 9 3 1 5 -18 5 -19 0 -27 -2 -17 -5z"/>
<path d="M4093 7453 c9 -2 25 -2 35 0 9 3 1 5 -18 5 -19 0 -27 -2 -17 -5z"/>
<path d="M5608 6928 c-2 -79 -2 -254 0 -390 3 -245 3 -247 25 -253 12 -4 54
-26 92 -50 123 -75 237 -137 242 -131 3 3 7 157 10 343 l4 338 -177 140 c-98
77 -181 141 -186 143 -4 2 -9 -61 -10 -140z"/>
<path d="M6508 6063 c-31 -36 -47 -95 -38 -138 1 -5 1 -20 0 -32 -1 -19 4 -23
29 -23 26 0 31 4 31 24 0 20 -4 23 -22 18 -14 -3 -19 -2 -14 6 4 7 23 12 42
12 l35 0 -3 73 c-3 64 -5 72 -24 75 -11 2 -27 -5 -36 -15z"/>
<path d="M6752 5993 c2 -56 6 -68 21 -71 16 -3 18 3 15 65 -2 56 -6 68 -21 71
-16 3 -18 -3 -15 -65z"/>
<path d="M6547 5913 c-12 -12 -7 -33 7 -33 8 0 13 7 12 15 -3 19 -11 27 -19
18z"/>
<path d="M6764 5896 c-4 -9 -4 -20 0 -23 3 -4 12 -1 18 5 9 9 9 15 0 24 -9 9
-13 7 -18 -6z"/>
<path d="M6044 5510 c0 -69 1 -97 3 -62 2 34 2 90 0 125 -2 34 -3 6 -3 -63z"/>
<path d="M6043 5190 c0 -25 2 -35 4 -22 2 12 2 32 0 45 -2 12 -4 2 -4 -23z"/>
<path d="M5607 5104 c-4 -4 -7 -194 -7 -421 l0 -414 23 6 c27 9 231 115 305
158 l52 32 -2 264 -3 264 -25 8 c-55 17 -306 98 -321 104 -8 3 -18 2 -22 -1z"/>
<path d="M6044 4790 c0 -113 2 -159 3 -102 2 56 2 148 0 205 -1 56 -3 10 -3
-103z"/>
<path d="M4844 4470 c0 -69 1 -97 3 -62 2 34 2 90 0 125 -2 34 -3 6 -3 -63z"/>
<path d="M4853 4190 c0 -47 2 -66 4 -42 2 23 2 61 0 85 -2 23 -4 4 -4 -43z"/>
<path d="M7637 4082 c-31 -31 -124 -120 -206 -197 -82 -77 -150 -144 -150
-149 -1 -5 54 -66 122 -135 67 -69 171 -176 231 -237 l108 -112 -26 -51 c-53
-104 -68 -211 -42 -306 33 -124 25 -115 828 -914 418 -416 763 -757 767 -759
4 -1 45 37 91 85 46 49 131 138 189 198 58 61 191 200 296 310 104 110 229
241 277 291 49 49 88 94 88 98 0 4 -190 198 -422 431 -584 584 -867 877 -914
943 -20 29 -132 116 -180 140 -157 80 -360 64 -505 -39 -13 -10 -24 -2 -65 42
-87 95 -412 419 -421 419 -4 0 -34 -26 -66 -58z"/>
<path d="M4851 4084 c0 -11 3 -14 6 -6 3 7 2 16 -1 19 -3 4 -6 -2 -5 -13z"/>
<path d="M2497 1473 c-4 -3 -7 -74 -7 -156 l0 -149 -39 35 c-62 56 -131 69
-214 41 -128 -44 -199 -214 -167 -401 22 -134 103 -227 207 -239 76 -10 115 2
167 47 l46 41 0 -41 0 -41 70 0 70 0 0 435 0 435 -63 0 c-35 0 -67 -3 -70 -7z
m-82 -359 c60 -39 93 -145 76 -240 -14 -72 -53 -124 -109 -143 -36 -13 -44
-13 -79 3 -117 52 -138 277 -36 367 27 23 43 29 79 29 24 0 56 -7 69 -16z"/>
<path d="M2782 1403 l3 -68 73 -3 72 -3 0 71 0 70 -75 0 -76 0 3 -67z"/>
<path d="M4810 1400 l0 -71 73 3 72 3 3 68 3 67 -76 0 -75 0 0 -70z"/>
<path d="M331 1449 c-128 -39 -193 -154 -167 -295 13 -65 83 -123 220 -180
158 -66 195 -105 165 -175 -17 -42 -63 -69 -120 -69 -68 0 -108 16 -206 85
-11 8 -24 -1 -54 -35 -22 -25 -38 -52 -37 -60 5 -23 96 -78 167 -100 130 -41
255 -19 332 59 97 96 93 245 -9 332 -22 19 -92 57 -154 84 -62 27 -123 59
-135 71 -48 49 -36 125 23 150 64 27 135 15 209 -36 17 -11 35 -20 41 -20 14
0 74 84 74 103 0 8 -33 31 -74 52 -64 32 -84 38 -157 41 -46 2 -99 -1 -118 -7z"/>
<path d="M4020 1030 l0 -422 183 4 c181 3 182 3 247 35 76 37 94 52 143 116
58 76 80 166 75 296 -4 93 -8 116 -35 172 -38 81 -100 143 -183 183 -64 31
-67 31 -247 34 l-183 4 0 -422z m365 268 c88 -47 139 -143 139 -263 0 -118
-33 -198 -105 -251 -45 -33 -90 -44 -181 -44 l-78 0 0 291 0 291 98 -4 c62 -3
108 -10 127 -20z"/>
<path d="M6747 1413 c-4 -3 -7 -41 -7 -84 l0 -78 -32 -3 c-33 -3 -33 -4 -36
-60 l-3 -58 36 0 35 0 0 -202 c0 -178 3 -208 19 -245 11 -23 30 -49 44 -58 35
-23 118 -30 172 -15 l45 13 0 57 0 57 -54 -5 c-83 -7 -86 2 -86 220 l0 178 70
0 70 0 0 60 0 60 -70 0 -70 0 0 85 0 85 -63 0 c-35 0 -67 -3 -70 -7z"/>
<path d="M5365 1245 c-22 -8 -57 -32 -77 -54 l-37 -39 -3 46 -3 47 -67 3 -68
3 0 -321 0 -320 70 0 70 0 0 168 c0 92 5 185 11 207 13 45 64 101 100 109 88
18 80 9 77 89 -3 81 -8 85 -73 62z"/>
<path d="M5680 1245 c-149 -46 -229 -254 -171 -443 27 -89 90 -160 165 -185
62 -21 165 -22 214 -2 49 21 112 65 112 79 0 6 -16 29 -34 51 -32 38 -35 39
-52 24 -78 -68 -186 -66 -246 6 -20 23 -43 84 -35 91 3 3 91 5 196 4 168 -1
192 1 198 16 9 25 -15 171 -37 222 -29 65 -74 108 -137 132 -62 23 -110 24
-173 5z m148 -130 c27 -23 62 -97 62 -132 0 -10 -29 -13 -130 -13 -148 0 -147
-1 -111 83 36 84 119 113 179 62z"/>
<path d="M6314 1242 c-63 -22 -112 -62 -147 -120 -39 -61 -50 -119 -45 -225 5
-104 30 -167 90 -224 98 -94 270 -99 371 -11 15 13 27 27 27 31 0 11 -63 87
-72 87 -3 0 -21 -12 -39 -27 -43 -37 -119 -39 -168 -4 -111 80 -87 347 35 377
42 11 103 -3 139 -30 l33 -26 37 50 c43 58 41 63 -36 105 -67 36 -153 43 -225
17z"/>
<path d="M7325 1251 c-88 -23 -159 -84 -198 -170 -31 -69 -35 -208 -9 -284 26
-73 71 -130 130 -165 42 -24 57 -27 137 -27 104 0 146 16 208 78 65 65 82 114
82 242 0 98 -3 116 -26 165 -31 67 -79 116 -138 142 -48 22 -139 31 -186 19z
m100 -121 c23 0 87 -62 101 -97 17 -39 17 -166 1 -208 -36 -94 -111 -128 -194
-88 -56 26 -85 80 -91 168 -5 81 11 142 48 185 21 24 88 52 108 45 8 -3 20 -5
27 -5z"/>
<path d="M8055 1245 c-37 -13 -74 -46 -102 -91 -10 -16 -12 -10 -12 39 l-1 58
-67 -3 -68 -3 -3 -317 -2 -318 70 0 70 0 0 153 c1 83 5 171 9 194 16 83 80
143 151 143 l30 0 0 80 c0 90 -1 91 -75 65z"/>
<path d="M945 1243 c-47 -10 -105 -36 -105 -46 0 -7 7 -33 17 -59 l16 -47 51
20 c127 48 236 1 236 -102 0 -26 -3 -30 -17 -23 -32 14 -173 17 -218 4 -161
-45 -182 -296 -30 -370 74 -36 191 -21 235 30 24 27 30 25 30 -10 l0 -30 70 0
70 0 0 204 c0 112 -5 227 -10 257 -23 122 -103 180 -245 178 -44 -1 -89 -3
-100 -6z m178 -344 c37 -10 37 -10 37 -64 0 -43 -5 -59 -26 -84 -68 -82 -204
-49 -204 50 0 87 82 129 193 98z"/>
<path d="M1437 1243 c-11 -10 -8 -425 3 -484 18 -96 90 -159 183 -159 60 0
110 21 148 61 l29 31 0 -41 0 -41 70 0 70 0 0 320 0 320 -70 0 -70 0 0 -210
c0 -230 -6 -264 -55 -296 -31 -20 -87 -22 -121 -4 -45 25 -54 72 -54 300 l0
210 -63 0 c-35 0 -67 -3 -70 -7z"/>
<path d="M2790 930 l0 -320 70 0 70 0 -2 318 -3 317 -67 3 -68 3 0 -321z"/>
<path d="M3190 1243 c-8 -3 -34 -13 -57 -23 l-42 -18 17 -51 c9 -28 21 -51 26
-51 6 0 33 7 60 15 129 39 226 -8 226 -110 0 -22 -3 -26 -17 -20 -32 14 -177
17 -219 6 -87 -23 -133 -91 -134 -194 0 -120 75 -197 194 -197 65 0 99 13 144
54 l32 30 0 -37 0 -37 65 0 65 0 0 235 c0 256 -4 281 -58 339 -46 49 -96 66
-197 65 -49 0 -97 -3 -105 -6z m193 -344 c36 -10 37 -11 37 -55 0 -84 -49
-136 -132 -138 -76 -2 -126 73 -94 142 26 55 102 75 189 51z"/>
<path d="M4817 1243 c-4 -3 -7 -147 -7 -320 l0 -313 70 0 70 0 0 320 0 320
-63 0 c-35 0 -67 -3 -70 -7z"/>
<path d="M8190 1237 c0 -12 104 -307 191 -546 l31 -83 -20 -27 c-17 -23 -26
-26 -78 -26 l-58 0 -18 -48 -18 -48 37 -16 c25 -10 59 -14 105 -11 58 3 72 8
99 33 17 17 40 47 51 69 20 39 238 685 238 705 0 7 -25 11 -68 11 l-68 0 -64
-212 c-35 -117 -66 -219 -70 -226 -3 -7 -23 43 -45 110 -21 68 -53 168 -71
223 l-32 100 -71 3 c-55 2 -71 0 -71 -11z"/>
</g>
</svg>
